<svg width="95" height="21" viewBox="0 0 95 21" fill="none" xmlns="http://www.w3.org/2000/svg">
<path d="M11.96 3.48C12.056 3.864 12.104 4.344 12.104 4.92C12.104 5.472 12.056 5.952 11.96 6.36C12.056 6.744 12.104 7.224 12.104 7.8C12.104 8.352 12.056 8.832 11.96 9.24C12.056 9.624 12.104 10.104 12.104 10.68C12.104 11.232 12.056 11.712 11.96 12.12C12.056 12.504 12.104 12.984 12.104 13.56C12.104 14.112 12.056 14.592 11.96 15C12.056 15.384 12.104 15.864 12.104 16.44C12.104 16.992 12.056 17.472 11.96 17.88C12.056 18.264 12.104 18.744 12.104 19.32C12.104 19.872 12.056 20.352 11.96 20.76H9.08C8.984 20.352 8.936 19.872 8.936 19.32C8.936 18.744 8.984 18.264 9.08 17.88C8.984 17.472 8.936 16.992 8.936 16.44C8.936 15.864 8.984 15.384 9.08 15C8.984 14.592 8.936 14.112 8.936 13.56C8.936 12.984 8.984 12.504 9.08 12.12H7.64C7.544 11.712 7.496 11.232 7.496 10.68C7.496 10.104 7.544 9.624 7.64 9.24H9.08C8.984 8.832 8.936 8.352 8.936 7.8C8.936 7.224 8.984 6.744 9.08 6.36C8.984 5.952 8.936 5.472 8.936 4.92C8.936 4.344 8.984 3.864 9.08 3.48H4.76C4.856 3.864 4.904 4.344 4.904 4.92C4.904 5.472 4.856 5.952 4.76 6.36H3.32C3.416 6.744 3.464 7.224 3.464 7.8C3.464 8.352 3.416 8.832 3.32 9.24H4.76C4.856 9.624 4.904 10.104 4.904 10.68C4.904 11.232 4.856 11.712 4.76 12.12H7.64C7.736 12.504 7.784 12.984 7.784 13.56C7.784 14.112 7.736 14.592 7.64 15H3.32C3.224 14.592 3.176 14.112 3.176 13.56C3.176 12.984 3.224 12.504 3.32 12.12H1.88C1.784 11.712 1.736 11.232 1.736 10.68C1.736 10.104 1.784 9.624 1.88 9.24H0.44C0.344 8.832 0.296 8.352 0.296 7.8C0.296 7.224 0.344 6.744 0.44 6.36H1.88C1.784 5.952 1.736 5.472 1.736 4.92C1.736 4.344 1.784 3.864 1.88 3.48H3.32C3.224 3.072 3.176 2.592 3.176 2.04C3.176 1.464 3.224 0.984 3.32 0.6H11.96C12.056 0.984 12.104 1.464 12.104 2.04C12.104 2.592 12.056 3.072 11.96 3.48ZM18.9581 10.68C18.9581 11.232 18.9101 11.712 18.8141 12.12H22.4141C22.5101 12.504 22.5581 12.984 22.5581 13.56C22.5581 14.112 22.5101 14.592 22.4141 15H16.6541C16.5581 14.592 16.5101 14.112 16.5101 13.56C16.5101 12.984 16.5581 12.504 16.6541 12.12H14.8541C14.7581 11.712 14.7101 11.232 14.7101 10.68C14.7101 10.104 14.7581 9.624 14.8541 9.24C14.7581 8.832 14.7101 8.352 14.7101 7.8C14.7101 7.224 14.7581 6.744 14.8541 6.36C14.7581 5.952 14.7101 5.472 14.7101 4.92C14.7101 4.344 14.7581 3.864 14.8541 3.48C14.7581 3.072 14.7101 2.592 14.7101 2.04C14.7101 1.464 14.7581 0.984 14.8541 0.6H17.7341C17.8301 0.984 17.8781 1.464 17.8781 2.04C17.8781 2.592 17.8301 3.072 17.7341 3.48C17.8301 3.864 17.8781 4.344 17.8781 4.92C17.8781 5.472 17.8301 5.952 17.7341 6.36C17.8301 6.744 17.8781 7.224 17.8781 7.8C17.8781 8.352 17.8301 8.832 17.7341 9.24H18.8141C18.9101 9.624 18.9581 10.104 18.9581 10.68ZM26.3741 3.48C26.4701 3.864 26.5181 4.344 26.5181 4.92C26.5181 5.472 26.4701 5.952 26.3741 6.36C26.4701 6.744 26.5181 7.224 26.5181 7.8C26.5181 8.352 26.4701 8.832 26.3741 9.24C26.4701 9.624 26.5181 10.104 26.5181 10.68C26.5181 11.232 26.4701 11.712 26.3741 12.12C26.4701 12.504 26.5181 12.984 26.5181 13.56C26.5181 14.112 26.4701 14.592 26.3741 15H23.4941C23.3981 14.592 23.3501 14.112 23.3501 13.56C23.3501 12.984 23.3981 12.504 23.4941 12.12H22.4141C22.3181 11.712 22.2701 11.232 22.2701 10.68C22.2701 10.104 22.3181 9.624 22.4141 9.24H23.4941C23.3981 8.832 23.3501 8.352 23.3501 7.8C23.3501 7.224 23.3981 6.744 23.4941 6.36C23.3981 5.952 23.3501 5.472 23.3501 4.92C23.3501 4.344 23.3981 3.864 23.4941 3.48C23.3981 3.072 23.3501 2.592 23.3501 2.04C23.3501 1.464 23.3981 0.984 23.4941 0.6H26.3741C26.4701 0.984 26.5181 1.464 26.5181 2.04C26.5181 2.592 26.4701 3.072 26.3741 3.48ZM40.9321 7.8C40.9321 8.352 40.8841 8.832 40.7881 9.24H39.7081C39.8041 9.624 39.8521 10.104 39.8521 10.68C39.8521 11.232 39.8041 11.712 39.7081 12.12H37.9081C38.0041 12.504 38.0521 12.984 38.0521 13.56C38.0521 14.112 38.0041 14.592 37.9081 15H32.1481C32.0521 14.592 32.0041 14.112 32.0041 13.56C32.0041 12.984 32.0521 12.504 32.1481 12.12H30.3481C30.2521 11.712 30.2041 11.232 30.2041 10.68C30.2041 10.104 30.2521 9.624 30.3481 9.24H29.2681C29.1721 8.832 29.1241 8.352 29.1241 7.8C29.1241 7.224 29.1721 6.744 29.2681 6.36H30.3481C30.2521 5.952 30.2041 5.472 30.2041 4.92C30.2041 4.344 30.2521 3.864 30.3481 3.48H32.1481C32.0521 3.072 32.0041 2.592 32.0041 2.04C32.0041 1.464 32.0521 0.984 32.1481 0.6H37.9081C38.0041 0.984 38.0521 1.464 38.0521 2.04C38.0521 2.592 38.0041 3.072 37.9081 3.48H39.7081C39.8041 3.864 39.8521 4.344 39.8521 4.92C39.8521 5.472 39.8041 5.952 39.7081 6.36H40.7881C40.8841 6.744 40.9321 7.224 40.9321 7.8ZM37.9081 9.24C37.8121 8.832 37.7641 8.352 37.7641 7.8C37.7641 7.224 37.8121 6.744 37.9081 6.36H36.8281C36.7321 5.952 36.6841 5.472 36.6841 4.92C36.6841 4.344 36.7321 3.864 36.8281 3.48H33.2281C33.3241 3.864 33.3721 4.344 33.3721 4.92C33.3721 5.472 33.3241 5.952 33.2281 6.36H32.1481C32.2441 6.744 32.2921 7.224 32.2921 7.8C32.2921 8.352 32.2441 8.832 32.1481 9.24H33.2281C33.3241 9.624 33.3721 10.104 33.3721 10.68C33.3721 11.232 33.3241 11.712 33.2281 12.12H36.8281C36.7321 11.712 36.6841 11.232 36.6841 10.68C36.6841 10.104 36.7321 9.624 36.8281 9.24H37.9081ZM55.2022 3.48C55.2982 3.864 55.3462 4.344 55.3462 4.92C55.3462 5.472 55.2982 5.952 55.2022 6.36H52.3222C52.2262 5.952 52.1782 5.472 52.1782 4.92C52.1782 4.344 52.2262 3.864 52.3222 3.48H49.8022C49.8982 3.864 49.9462 4.344 49.9462 4.92C49.9462 5.472 49.8982 5.952 49.8022 6.36H48.7222C48.8182 6.744 48.8662 7.224 48.8662 7.8C48.8662 8.352 48.8182 8.832 48.7222 9.24C48.8182 9.624 48.8662 10.104 48.8662 10.68C48.8662 11.232 48.8182 11.712 48.7222 12.12H50.8822C50.9782 12.504 51.0262 12.984 51.0262 13.56C51.0262 14.112 50.9782 14.592 50.8822 15H43.6822C43.5862 14.592 43.5382 14.112 43.5382 13.56C43.5382 12.984 43.5862 12.504 43.6822 12.12H45.8422C45.7462 11.712 45.6982 11.232 45.6982 10.68C45.6982 10.104 45.7462 9.624 45.8422 9.24C45.7462 8.832 45.6982 8.352 45.6982 7.8C45.6982 7.224 45.7462 6.744 45.8422 6.36C45.7462 5.952 45.6982 5.472 45.6982 4.92C45.6982 4.344 45.7462 3.864 45.8422 3.48H43.6822C43.5862 3.072 43.5382 2.592 43.5382 2.04C43.5382 1.464 43.5862 0.984 43.6822 0.6H47.2822C47.3782 0.984 47.4262 1.464 47.4262 2.04C47.4262 2.592 47.3782 3.072 47.2822 3.48H48.7222C48.6262 3.072 48.5782 2.592 48.5782 2.04C48.5782 1.464 48.6262 0.984 48.7222 0.6H54.1222C54.2182 0.984 54.2662 1.464 54.2662 2.04C54.2662 2.592 54.2182 3.072 54.1222 3.48H55.2022ZM62.2003 10.68C62.2003 11.232 62.1523 11.712 62.0563 12.12H65.6562C65.7523 12.504 65.8003 12.984 65.8003 13.56C65.8003 14.112 65.7523 14.592 65.6562 15H59.8963C59.8003 14.592 59.7523 14.112 59.7523 13.56C59.7523 12.984 59.8003 12.504 59.8963 12.12H58.0963C58.0003 11.712 57.9523 11.232 57.9523 10.68C57.9523 10.104 58.0003 9.624 58.0963 9.24C58.0003 8.832 57.9523 8.352 57.9523 7.8C57.9523 7.224 58.0003 6.744 58.0963 6.36C58.0003 5.952 57.9523 5.472 57.9523 4.92C57.9523 4.344 58.0003 3.864 58.0963 3.48C58.0003 3.072 57.9523 2.592 57.9523 2.04C57.9523 1.464 58.0003 0.984 58.0963 0.6H60.9763C61.0723 0.984 61.1203 1.464 61.1203 2.04C61.1203 2.592 61.0723 3.072 60.9763 3.48C61.0723 3.864 61.1203 4.344 61.1203 4.92C61.1203 5.472 61.0723 5.952 60.9763 6.36C61.0723 6.744 61.1203 7.224 61.1203 7.8C61.1203 8.352 61.0723 8.832 60.9763 9.24H62.0563C62.1523 9.624 62.2003 10.104 62.2003 10.68ZM69.6163 3.48C69.7123 3.864 69.7603 4.344 69.7603 4.92C69.7603 5.472 69.7123 5.952 69.6163 6.36C69.7123 6.744 69.7603 7.224 69.7603 7.8C69.7603 8.352 69.7123 8.832 69.6163 9.24C69.7123 9.624 69.7603 10.104 69.7603 10.68C69.7603 11.232 69.7123 11.712 69.6163 12.12C69.7123 12.504 69.7603 12.984 69.7603 13.56C69.7603 14.112 69.7123 14.592 69.6163 15H66.7363C66.6403 14.592 66.5923 14.112 66.5923 13.56C66.5923 12.984 66.6403 12.504 66.7363 12.12H65.6562C65.5603 11.712 65.5123 11.232 65.5123 10.68C65.5123 10.104 65.5603 9.624 65.6562 9.24H66.7363C66.6403 8.832 66.5923 8.352 66.5923 7.8C66.5923 7.224 66.6403 6.744 66.7363 6.36C66.6403 5.952 66.5923 5.472 66.5923 4.92C66.5923 4.344 66.6403 3.864 66.7363 3.48C66.6403 3.072 66.5923 2.592 66.5923 2.04C66.5923 1.464 66.6403 0.984 66.7363 0.6H69.6163C69.7123 0.984 69.7603 1.464 69.7603 2.04C69.7603 2.592 69.7123 3.072 69.6163 3.48ZM74.4543 2.04C74.4543 2.592 74.4063 3.072 74.3103 3.48H75.3903C75.4863 3.864 75.5343 4.344 75.5343 4.92C75.5343 5.472 75.4863 5.952 75.3903 6.36C75.4863 6.744 75.5343 7.224 75.5343 7.8C75.5343 8.352 75.4863 8.832 75.3903 9.24C75.4863 9.624 75.5343 10.104 75.5343 10.68C75.5343 11.232 75.4863 11.712 75.3903 12.12C75.4863 12.504 75.5343 12.984 75.5343 13.56C75.5343 14.112 75.4863 14.592 75.3903 15H72.5103C72.4143 14.592 72.3663 14.112 72.3663 13.56C72.3663 12.984 72.4143 12.504 72.5103 12.12C72.4143 11.712 72.3663 11.232 72.3663 10.68C72.3663 10.104 72.4143 9.624 72.5103 9.24C72.4143 8.832 72.3663 8.352 72.3663 7.8C72.3663 7.224 72.4143 6.744 72.5103 6.36C72.4143 5.952 72.3663 5.472 72.3663 4.92C72.3663 4.344 72.4143 3.864 72.5103 3.48C72.4143 3.072 72.3663 2.592 72.3663 2.04C72.3663 1.464 72.4143 0.984 72.5103 0.6H74.3103C74.4063 0.984 74.4543 1.464 74.4543 2.04ZM78.4143 2.04C78.4143 2.592 78.3663 3.072 78.2703 3.48H79.3503C79.4463 3.864 79.4943 4.344 79.4943 4.92C79.4943 5.472 79.4463 5.952 79.3503 6.36C79.4463 6.744 79.4943 7.224 79.4943 7.8C79.4943 8.352 79.4463 8.832 79.3503 9.24C79.4463 9.624 79.4943 10.104 79.4943 10.68C79.4943 11.232 79.4463 11.712 79.3503 12.12C79.4463 12.504 79.4943 12.984 79.4943 13.56C79.4943 14.112 79.4463 14.592 79.3503 15H77.1903C77.0943 14.592 77.0463 14.112 77.0463 13.56C77.0463 12.984 77.0943 12.504 77.1903 12.12C77.0943 11.712 77.0463 11.232 77.0463 10.68C77.0463 10.104 77.0943 9.624 77.1903 9.24C77.0943 8.832 77.0463 8.352 77.0463 7.8C77.0463 7.224 77.0943 6.744 77.1903 6.36C77.0943 5.952 77.0463 5.472 77.0463 4.92C77.0463 4.344 77.0943 3.864 77.1903 3.48H75.3903C75.2943 3.072 75.2463 2.592 75.2463 2.04C75.2463 1.464 75.2943 0.984 75.3903 0.6H78.2703C78.3663 0.984 78.4143 1.464 78.4143 2.04ZM84.0303 6.36C84.1263 6.744 84.1743 7.224 84.1743 7.8C84.1743 8.352 84.1263 8.832 84.0303 9.24C84.1263 9.624 84.1743 10.104 84.1743 10.68C84.1743 11.232 84.1263 11.712 84.0303 12.12C84.1263 12.504 84.1743 12.984 84.1743 13.56C84.1743 14.112 84.1263 14.592 84.0303 15H81.1503C81.0543 14.592 81.0063 14.112 81.0063 13.56C81.0063 12.984 81.0543 12.504 81.1503 12.12C81.0543 11.712 81.0063 11.232 81.0063 10.68C81.0063 10.104 81.0543 9.624 81.1503 9.24C81.0543 8.832 81.0063 8.352 81.0063 7.8C81.0063 7.224 81.0543 6.744 81.1503 6.36C81.0543 5.952 81.0063 5.472 81.0063 4.92C81.0063 4.344 81.0543 3.864 81.1503 3.48H79.3503C79.2543 3.072 79.2063 2.592 79.2063 2.04C79.2063 1.464 79.2543 0.984 79.3503 0.6H82.5903C82.6863 0.984 82.7343 1.464 82.7343 2.04C82.7343 2.592 82.6863 3.072 82.5903 3.48H84.0303C84.1263 3.864 84.1743 4.344 84.1743 4.92C84.1743 5.472 84.1263 5.952 84.0303 6.36ZM94.6284 10.68C94.6284 11.232 94.5804 11.712 94.4844 12.12C94.5804 12.504 94.6284 12.984 94.6284 13.56C94.6284 14.112 94.5804 14.592 94.4844 15H90.8844C90.7884 14.592 90.7404 14.112 90.7404 13.56C90.7404 12.984 90.7884 12.504 90.8844 12.12C90.7884 11.712 90.7404 11.232 90.7404 10.68C90.7404 10.104 90.7884 9.624 90.8844 9.24H94.4844C94.5804 9.624 94.6284 10.104 94.6284 10.68Z" fill="white"/>
</svg>
